%TF.GenerationSoftware,KiCad,Pcbnew,(6.0.4-0)*%
%TF.CreationDate,2022-04-10T17:45:34-05:00*%
%TF.ProjectId,Ampeater,416d7065-6174-4657-922e-6b696361645f,rev?*%
%TF.SameCoordinates,Original*%
%TF.FileFunction,Soldermask,Top*%
%TF.FilePolarity,Negative*%
%FSLAX46Y46*%
G04 Gerber Fmt 4.6, Leading zero omitted, Abs format (unit mm)*
G04 Created by KiCad (PCBNEW (6.0.4-0)) date 2022-04-10 17:45:34*
%MOMM*%
%LPD*%
G01*
G04 APERTURE LIST*
G04 Aperture macros list*
%AMRoundRect*
0 Rectangle with rounded corners*
0 $1 Rounding radius*
0 $2 $3 $4 $5 $6 $7 $8 $9 X,Y pos of 4 corners*
0 Add a 4 corners polygon primitive as box body*
4,1,4,$2,$3,$4,$5,$6,$7,$8,$9,$2,$3,0*
0 Add four circle primitives for the rounded corners*
1,1,$1+$1,$2,$3*
1,1,$1+$1,$4,$5*
1,1,$1+$1,$6,$7*
1,1,$1+$1,$8,$9*
0 Add four rect primitives between the rounded corners*
20,1,$1+$1,$2,$3,$4,$5,0*
20,1,$1+$1,$4,$5,$6,$7,0*
20,1,$1+$1,$6,$7,$8,$9,0*
20,1,$1+$1,$8,$9,$2,$3,0*%
G04 Aperture macros list end*
%ADD10C,0.150000*%
%ADD11C,0.450000*%
%ADD12C,5.700000*%
%ADD13RoundRect,0.425000X0.425000X-0.425000X0.425000X0.425000X-0.425000X0.425000X-0.425000X-0.425000X0*%
%ADD14C,1.700000*%
%ADD15R,1.200000X2.200000*%
%ADD16R,5.800001X6.400000*%
%ADD17RoundRect,0.225000X0.225000X0.250000X-0.225000X0.250000X-0.225000X-0.250000X0.225000X-0.250000X0*%
%ADD18R,3.100000X3.600000*%
%ADD19RoundRect,0.200000X0.200000X0.275000X-0.200000X0.275000X-0.200000X-0.275000X0.200000X-0.275000X0*%
%ADD20RoundRect,0.250000X-0.750000X0.600000X-0.750000X-0.600000X0.750000X-0.600000X0.750000X0.600000X0*%
%ADD21O,2.000000X1.700000*%
%ADD22RoundRect,0.250000X-0.362500X-1.425000X0.362500X-1.425000X0.362500X1.425000X-0.362500X1.425000X0*%
%ADD23RoundRect,0.100000X0.100000X-0.712500X0.100000X0.712500X-0.100000X0.712500X-0.100000X-0.712500X0*%
%ADD24C,2.600000*%
%ADD25RoundRect,0.225000X-0.225000X-0.250000X0.225000X-0.250000X0.225000X0.250000X-0.225000X0.250000X0*%
%ADD26R,1.100000X1.100000*%
%ADD27RoundRect,0.225000X-0.250000X0.225000X-0.250000X-0.225000X0.250000X-0.225000X0.250000X0.225000X0*%
%ADD28RoundRect,0.200000X-0.200000X-0.275000X0.200000X-0.275000X0.200000X0.275000X-0.200000X0.275000X0*%
%ADD29RoundRect,0.200000X-0.275000X0.200000X-0.275000X-0.200000X0.275000X-0.200000X0.275000X0.200000X0*%
%ADD30R,2.400000X2.400000*%
%ADD31C,2.400000*%
%ADD32RoundRect,0.200000X0.275000X-0.200000X0.275000X0.200000X-0.275000X0.200000X-0.275000X-0.200000X0*%
%ADD33C,4.000000*%
%ADD34R,1.905000X2.000000*%
%ADD35O,1.905000X2.000000*%
%ADD36RoundRect,0.450000X-0.800000X-0.450000X0.800000X-0.450000X0.800000X0.450000X-0.800000X0.450000X0*%
%ADD37C,6.400000*%
%ADD38R,2.000000X2.200000*%
%ADD39RoundRect,0.200000X0.800000X0.900000X-0.800000X0.900000X-0.800000X-0.900000X0.800000X-0.900000X0*%
%ADD40C,10.600000*%
%ADD41RoundRect,0.225000X0.250000X-0.225000X0.250000X0.225000X-0.250000X0.225000X-0.250000X-0.225000X0*%
%ADD42R,2.600000X2.600000*%
%ADD43C,1.600000*%
%ADD44R,1.600000X1.600000*%
%ADD45RoundRect,0.150000X-0.150000X0.512500X-0.150000X-0.512500X0.150000X-0.512500X0.150000X0.512500X0*%
%ADD46O,1.700000X1.700000*%
%ADD47R,1.700000X1.700000*%
%ADD48C,2.500000*%
%ADD49R,2.000000X2.000000*%
%ADD50C,2.000000*%
%ADD51R,3.000000X2.500000*%
%ADD52RoundRect,0.125000X-0.537500X-0.125000X0.537500X-0.125000X0.537500X0.125000X-0.537500X0.125000X0*%
%ADD53RoundRect,0.100000X0.637500X0.100000X-0.637500X0.100000X-0.637500X-0.100000X0.637500X-0.100000X0*%
G04 APERTURE END LIST*
D10*
X86614000Y-34798000D02*
X163830000Y-34798000D01*
X163830000Y-34798000D02*
X163830000Y-78536800D01*
X163830000Y-78536800D02*
X86614000Y-78536800D01*
X86614000Y-78536800D02*
X86614000Y-34798000D01*
G36*
X86614000Y-34798000D02*
G01*
X163830000Y-34798000D01*
X163830000Y-78536800D01*
X86614000Y-78536800D01*
X86614000Y-34798000D01*
G37*
D11*
%TO.C,JP201*%
X91719400Y-90995600D02*
X91719400Y-92695600D01*
%TD*%
D12*
%TO.C,DS301*%
X92931991Y-98265000D03*
X160191991Y-134145000D03*
X92931991Y-134145000D03*
X160191991Y-98265000D03*
D13*
X88011991Y-99695000D03*
D14*
X88011991Y-102235000D03*
X88011991Y-104775000D03*
X88011991Y-107315000D03*
X88011991Y-109855000D03*
X88011991Y-112395000D03*
X88011991Y-114935000D03*
X88011991Y-117475000D03*
X88011991Y-120015000D03*
X88011991Y-122555000D03*
X88011991Y-125095000D03*
X88011991Y-127635000D03*
X88011991Y-130175000D03*
X88011991Y-132715000D03*
X161191991Y-112395000D03*
X161191991Y-114935000D03*
X161191991Y-117475000D03*
X161191991Y-120015000D03*
%TD*%
D15*
%TO.C,U101*%
X138004200Y-128228200D03*
D16*
X140284200Y-121928204D03*
D15*
X142564200Y-128228200D03*
%TD*%
D17*
%TO.C,C202*%
X123025200Y-87096600D03*
X121475200Y-87096600D03*
%TD*%
%TO.C,C201*%
X123025200Y-85242400D03*
X121475200Y-85242400D03*
%TD*%
D18*
%TO.C,R219*%
X146100800Y-85979000D03*
X149800800Y-85979000D03*
%TD*%
D19*
%TO.C,R304*%
X109283000Y-105486200D03*
X107633000Y-105486200D03*
%TD*%
D20*
%TO.C,M201*%
X90695000Y-82570000D03*
D21*
X90695000Y-85070000D03*
%TD*%
D19*
%TO.C,R204*%
X118808000Y-95631000D03*
X117158000Y-95631000D03*
%TD*%
D22*
%TO.C,R222*%
X143921500Y-90551000D03*
X149846500Y-90551000D03*
%TD*%
D17*
%TO.C,C309*%
X123025200Y-94589600D03*
X121475200Y-94589600D03*
%TD*%
D23*
%TO.C,U303*%
X121275200Y-101020100D03*
X121925200Y-101020100D03*
X122575200Y-101020100D03*
X123225200Y-101020100D03*
X123225200Y-96795100D03*
X122575200Y-96795100D03*
X121925200Y-96795100D03*
X121275200Y-96795100D03*
%TD*%
D24*
%TO.C,J103*%
X118999000Y-30734000D03*
X113919000Y-30734000D03*
X118999000Y-25654000D03*
X113919000Y-25654000D03*
%TD*%
D25*
%TO.C,C206*%
X125717000Y-89916000D03*
X127267000Y-89916000D03*
%TD*%
D26*
%TO.C,D302*%
X83642200Y-124564600D03*
X83642200Y-121764600D03*
%TD*%
D17*
%TO.C,C101*%
X141059200Y-130842200D03*
X139509200Y-130842200D03*
%TD*%
D27*
%TO.C,C307*%
X120116600Y-110883400D03*
X120116600Y-112433400D03*
%TD*%
D22*
%TO.C,R214*%
X104479500Y-90551000D03*
X110404500Y-90551000D03*
%TD*%
D17*
%TO.C,C310*%
X118758000Y-103124000D03*
X117208000Y-103124000D03*
%TD*%
D28*
%TO.C,R307*%
X141669000Y-134366000D03*
X143319000Y-134366000D03*
%TD*%
D24*
%TO.C,J105*%
X98679000Y-30734000D03*
X103759000Y-25654000D03*
X98679000Y-25654000D03*
X103759000Y-30734000D03*
%TD*%
D28*
%TO.C,R302*%
X102553000Y-138430000D03*
X104203000Y-138430000D03*
%TD*%
D29*
%TO.C,R208*%
X123918900Y-107353600D03*
X123918900Y-109003600D03*
%TD*%
D28*
%TO.C,R216*%
X125641600Y-84201000D03*
X127291600Y-84201000D03*
%TD*%
D30*
%TO.C,J104*%
X135255000Y-28194000D03*
D31*
X130255000Y-28194000D03*
%TD*%
D19*
%TO.C,R308*%
X143319000Y-136398000D03*
X141669000Y-136398000D03*
%TD*%
D32*
%TO.C,R306*%
X123926600Y-112483400D03*
X123926600Y-110833400D03*
%TD*%
D17*
%TO.C,C305*%
X139713000Y-134366000D03*
X138163000Y-134366000D03*
%TD*%
%TO.C,C308*%
X139713000Y-136398000D03*
X138163000Y-136398000D03*
%TD*%
D29*
%TO.C,R309*%
X115036600Y-99022400D03*
X115036600Y-100672400D03*
%TD*%
D25*
%TO.C,C208*%
X125717000Y-93726000D03*
X127267000Y-93726000D03*
%TD*%
D33*
%TO.C,J106*%
X146431000Y-28194000D03*
%TD*%
D34*
%TO.C,Q201*%
X95681800Y-91521407D03*
D35*
X98221800Y-91521407D03*
X100761800Y-91521407D03*
%TD*%
D36*
%TO.C,SW302*%
X116988000Y-143804000D03*
X102488000Y-143804000D03*
X102488000Y-148804000D03*
X116988000Y-148804000D03*
%TD*%
D37*
%TO.C,H104*%
X169672000Y-29972000D03*
%TD*%
D18*
%TO.C,R220*%
X138739000Y-85979000D03*
X142439000Y-85979000D03*
%TD*%
D38*
%TO.C,D101*%
X172974000Y-98262600D03*
D39*
X169374000Y-98262600D03*
%TD*%
D29*
%TO.C,R206*%
X120116600Y-107353600D03*
X120116600Y-109003600D03*
%TD*%
D40*
%TO.C,HS201*%
X99822000Y-72644000D03*
X150622000Y-72644000D03*
%TD*%
D19*
%TO.C,R305*%
X143319000Y-138430000D03*
X141669000Y-138430000D03*
%TD*%
D34*
%TO.C,Q204*%
X141732000Y-81203800D03*
D35*
X144272000Y-81203800D03*
X146812000Y-81203800D03*
%TD*%
D41*
%TO.C,C301*%
X125831600Y-112433400D03*
X125831600Y-110883400D03*
%TD*%
D36*
%TO.C,SW303*%
X122186000Y-143804000D03*
X136686000Y-143804000D03*
X122186000Y-148804000D03*
X136686000Y-148804000D03*
%TD*%
D42*
%TO.C,J101*%
X163322000Y-87821211D03*
D24*
X169322000Y-87821211D03*
X166322000Y-83121211D03*
%TD*%
D28*
%TO.C,R310*%
X91250000Y-117475000D03*
X92900000Y-117475000D03*
%TD*%
D34*
%TO.C,Q203*%
X135128000Y-91521407D03*
D35*
X137668000Y-91521414D03*
X140208000Y-91521407D03*
%TD*%
D28*
%TO.C,R303*%
X123761000Y-138430000D03*
X122111000Y-138430000D03*
%TD*%
D33*
%TO.C,J102*%
X154051000Y-28194000D03*
%TD*%
D41*
%TO.C,C304*%
X109423200Y-109004400D03*
X109423200Y-107454400D03*
%TD*%
D43*
%TO.C,SW101*%
X169596000Y-113587500D03*
X172796000Y-113587500D03*
X169596000Y-116087500D03*
X172796000Y-116087500D03*
X172796000Y-118587500D03*
D44*
X169596000Y-118587500D03*
%TD*%
D18*
%TO.C,R211*%
X106684200Y-85979000D03*
X110384200Y-85979000D03*
%TD*%
%TO.C,R212*%
X99318200Y-85979000D03*
X103018200Y-85979000D03*
%TD*%
D28*
%TO.C,R217*%
X125667000Y-91821000D03*
X127317000Y-91821000D03*
%TD*%
D45*
%TO.C,U302*%
X118933000Y-98709900D03*
X117983000Y-98709900D03*
X117033000Y-98709900D03*
X117033000Y-100984900D03*
X117983000Y-100984900D03*
X118933000Y-100984900D03*
%TD*%
D29*
%TO.C,R209*%
X125823900Y-107353600D03*
X125823900Y-109003600D03*
%TD*%
%TO.C,R205*%
X109423200Y-110884200D03*
X109423200Y-112534200D03*
%TD*%
D46*
%TO.C,J302*%
X83623000Y-104902000D03*
X83623000Y-107442000D03*
X83623000Y-109982000D03*
X83623000Y-112522000D03*
X83623000Y-115062000D03*
D47*
X83623000Y-117602000D03*
%TD*%
D17*
%TO.C,C311*%
X123025200Y-92735400D03*
X121475200Y-92735400D03*
%TD*%
D25*
%TO.C,C302*%
X107683000Y-103505000D03*
X109233000Y-103505000D03*
%TD*%
D32*
%TO.C,R221*%
X129108200Y-85788000D03*
X129108200Y-84138000D03*
%TD*%
D19*
%TO.C,R203*%
X118808000Y-91821000D03*
X117158000Y-91821000D03*
%TD*%
D27*
%TO.C,C306*%
X122021600Y-110883400D03*
X122021600Y-112433400D03*
%TD*%
D25*
%TO.C,C204*%
X117208000Y-86106000D03*
X118758000Y-86106000D03*
%TD*%
D29*
%TO.C,JP201*%
X91719400Y-90970600D03*
X91719400Y-92620600D03*
%TD*%
D19*
%TO.C,R101*%
X171999000Y-95377000D03*
X170349000Y-95377000D03*
%TD*%
D28*
%TO.C,R201*%
X117158000Y-88011000D03*
X118808000Y-88011000D03*
%TD*%
D27*
%TO.C,C103*%
X135535400Y-124682400D03*
X135535400Y-126232400D03*
%TD*%
D19*
%TO.C,R215*%
X127317000Y-88011000D03*
X125667000Y-88011000D03*
%TD*%
D25*
%TO.C,C205*%
X117208000Y-93726000D03*
X118758000Y-93726000D03*
%TD*%
D41*
%TO.C,C303*%
X107518200Y-109004400D03*
X107518200Y-107454400D03*
%TD*%
D48*
%TO.C,TP301*%
X117627400Y-116128800D03*
%TD*%
D37*
%TO.C,H103*%
X169672000Y-147320000D03*
%TD*%
D29*
%TO.C,R207*%
X122021600Y-107353600D03*
X122021600Y-109003600D03*
%TD*%
D32*
%TO.C,R213*%
X115316000Y-85788000D03*
X115316000Y-84138000D03*
%TD*%
D48*
%TO.C,TP302*%
X126492000Y-98907600D03*
%TD*%
D49*
%TO.C,SW304*%
X141594000Y-143804000D03*
D50*
X141594000Y-148804000D03*
X141594000Y-146304000D03*
D51*
X149094000Y-140704000D03*
X149094000Y-151904000D03*
D50*
X156094000Y-143804000D03*
X156094000Y-148804000D03*
%TD*%
D19*
%TO.C,R301*%
X109283000Y-114427000D03*
X107633000Y-114427000D03*
%TD*%
D25*
%TO.C,C207*%
X125691600Y-86106000D03*
X127241600Y-86106000D03*
%TD*%
D52*
%TO.C,U201*%
X121112700Y-88941000D03*
X121112700Y-89591000D03*
X121112700Y-90241000D03*
X121112700Y-90891000D03*
X123387700Y-90891000D03*
X123387700Y-90241000D03*
X123387700Y-89591000D03*
X123387700Y-88941000D03*
%TD*%
D34*
%TO.C,Q202*%
X103632000Y-81203800D03*
D35*
X106172000Y-81203800D03*
X108712000Y-81203800D03*
%TD*%
D26*
%TO.C,D301*%
X83436000Y-89662000D03*
X86236000Y-89662000D03*
%TD*%
D29*
%TO.C,R210*%
X107518200Y-110884200D03*
X107518200Y-112534200D03*
%TD*%
D17*
%TO.C,C203*%
X118758000Y-89916000D03*
X117208000Y-89916000D03*
%TD*%
D28*
%TO.C,R218*%
X125667000Y-95631000D03*
X127317000Y-95631000D03*
%TD*%
D37*
%TO.C,H102*%
X80772000Y-147320000D03*
%TD*%
%TO.C,H101*%
X80772000Y-29972000D03*
%TD*%
D53*
%TO.C,U301*%
X117619700Y-112907000D03*
X117619700Y-112257000D03*
X117619700Y-111607000D03*
X117619700Y-110957000D03*
X117619700Y-110307000D03*
X117619700Y-109657000D03*
X117619700Y-109007000D03*
X117619700Y-108357000D03*
X117619700Y-107707000D03*
X117619700Y-107057000D03*
X111894700Y-107057000D03*
X111894700Y-107707000D03*
X111894700Y-108357000D03*
X111894700Y-109007000D03*
X111894700Y-109657000D03*
X111894700Y-110307000D03*
X111894700Y-110957000D03*
X111894700Y-111607000D03*
X111894700Y-112257000D03*
X111894700Y-112907000D03*
%TD*%
D27*
%TO.C,C102*%
X133554200Y-124682400D03*
X133554200Y-126232400D03*
%TD*%
D19*
%TO.C,R202*%
X118808000Y-84201000D03*
X117158000Y-84201000D03*
%TD*%
D47*
%TO.C,J301*%
X86168000Y-96017000D03*
D46*
X83628000Y-96017000D03*
X86168000Y-93477000D03*
X83628000Y-93477000D03*
%TD*%
M02*
