%TF.GenerationSoftware,KiCad,Pcbnew,(6.0.4-0)*%
%TF.CreationDate,2022-04-10T17:45:33-05:00*%
%TF.ProjectId,Ampeater,416d7065-6174-4657-922e-6b696361645f,rev?*%
%TF.SameCoordinates,Original*%
%TF.FileFunction,Legend,Bot*%
%TF.FilePolarity,Positive*%
%FSLAX46Y46*%
G04 Gerber Fmt 4.6, Leading zero omitted, Abs format (unit mm)*
G04 Created by KiCad (PCBNEW (6.0.4-0)) date 2022-04-10 17:45:33*
%MOMM*%
%LPD*%
G01*
G04 APERTURE LIST*
%ADD10C,0.203200*%
%ADD11C,0.355600*%
%ADD12C,1.270000*%
%ADD13C,0.381000*%
%ADD14C,0.150000*%
%ADD15C,0.120000*%
G04 APERTURE END LIST*
D10*
X132842000Y-144241185D02*
X132842000Y-136113185D01*
X118364000Y-145003185D02*
X132080000Y-145003185D01*
X132080000Y-135351185D02*
X118364000Y-135351185D01*
X117602000Y-136113185D02*
X117602000Y-144241185D01*
X132080000Y-145003185D02*
G75*
G03*
X132842000Y-144241185I0J762000D01*
G01*
X132842000Y-136113185D02*
G75*
G03*
X132080000Y-135351185I-762000J0D01*
G01*
X118364000Y-135351185D02*
G75*
G03*
X117602000Y-136113185I0J-762000D01*
G01*
X117602000Y-144241185D02*
G75*
G03*
X118364000Y-145003185I762000J0D01*
G01*
D11*
X128058333Y-138118938D02*
X128651000Y-137272271D01*
X129074333Y-138118938D02*
X129074333Y-136340938D01*
X128397000Y-136340938D01*
X128227666Y-136425605D01*
X128143000Y-136510271D01*
X128058333Y-136679605D01*
X128058333Y-136933605D01*
X128143000Y-137102938D01*
X128227666Y-137187605D01*
X128397000Y-137272271D01*
X129074333Y-137272271D01*
X126619000Y-138034271D02*
X126788333Y-138118938D01*
X127127000Y-138118938D01*
X127296333Y-138034271D01*
X127381000Y-137864938D01*
X127381000Y-137187605D01*
X127296333Y-137018271D01*
X127127000Y-136933605D01*
X126788333Y-136933605D01*
X126619000Y-137018271D01*
X126534333Y-137187605D01*
X126534333Y-137356938D01*
X127381000Y-137526271D01*
X125941666Y-136933605D02*
X125518333Y-138118938D01*
X125095000Y-136933605D01*
X124417666Y-137949605D02*
X124333000Y-138034271D01*
X124417666Y-138118938D01*
X124502333Y-138034271D01*
X124417666Y-137949605D01*
X124417666Y-138118938D01*
X124417666Y-137018271D02*
X124333000Y-137102938D01*
X124417666Y-137187605D01*
X124502333Y-137102938D01*
X124417666Y-137018271D01*
X124417666Y-137187605D01*
X121877666Y-136340938D02*
X121708333Y-136340938D01*
X121539000Y-136425605D01*
X121454333Y-136510271D01*
X121369666Y-136679605D01*
X121285000Y-137018271D01*
X121285000Y-137441605D01*
X121369666Y-137780271D01*
X121454333Y-137949605D01*
X121539000Y-138034271D01*
X121708333Y-138118938D01*
X121877666Y-138118938D01*
X122047000Y-138034271D01*
X122131666Y-137949605D01*
X122216333Y-137780271D01*
X122301000Y-137441605D01*
X122301000Y-137018271D01*
X122216333Y-136679605D01*
X122131666Y-136510271D01*
X122047000Y-136425605D01*
X121877666Y-136340938D01*
X131487333Y-140473518D02*
X130640666Y-140473518D01*
X131656666Y-140981518D02*
X131064000Y-139203518D01*
X130471333Y-140981518D01*
X129878666Y-139796185D02*
X129878666Y-141574185D01*
X129878666Y-139880851D02*
X129709333Y-139796185D01*
X129370666Y-139796185D01*
X129201333Y-139880851D01*
X129116666Y-139965518D01*
X129032000Y-140134851D01*
X129032000Y-140642851D01*
X129116666Y-140812185D01*
X129201333Y-140896851D01*
X129370666Y-140981518D01*
X129709333Y-140981518D01*
X129878666Y-140896851D01*
X128270000Y-140981518D02*
X128270000Y-139796185D01*
X128270000Y-140134851D02*
X128185333Y-139965518D01*
X128100666Y-139880851D01*
X127931333Y-139796185D01*
X127762000Y-139796185D01*
X127169333Y-140812185D02*
X127084666Y-140896851D01*
X127169333Y-140981518D01*
X127254000Y-140896851D01*
X127169333Y-140812185D01*
X127169333Y-140981518D01*
X125052666Y-139372851D02*
X124968000Y-139288185D01*
X124798666Y-139203518D01*
X124375333Y-139203518D01*
X124206000Y-139288185D01*
X124121333Y-139372851D01*
X124036666Y-139542185D01*
X124036666Y-139711518D01*
X124121333Y-139965518D01*
X125137333Y-140981518D01*
X124036666Y-140981518D01*
X122936000Y-139203518D02*
X122766666Y-139203518D01*
X122597333Y-139288185D01*
X122512666Y-139372851D01*
X122428000Y-139542185D01*
X122343333Y-139880851D01*
X122343333Y-140304185D01*
X122428000Y-140642851D01*
X122512666Y-140812185D01*
X122597333Y-140896851D01*
X122766666Y-140981518D01*
X122936000Y-140981518D01*
X123105333Y-140896851D01*
X123190000Y-140812185D01*
X123274666Y-140642851D01*
X123359333Y-140304185D01*
X123359333Y-139880851D01*
X123274666Y-139542185D01*
X123190000Y-139372851D01*
X123105333Y-139288185D01*
X122936000Y-139203518D01*
X121666000Y-139372851D02*
X121581333Y-139288185D01*
X121412000Y-139203518D01*
X120988666Y-139203518D01*
X120819333Y-139288185D01*
X120734666Y-139372851D01*
X120650000Y-139542185D01*
X120650000Y-139711518D01*
X120734666Y-139965518D01*
X121750666Y-140981518D01*
X120650000Y-140981518D01*
X119972666Y-139372851D02*
X119888000Y-139288185D01*
X119718666Y-139203518D01*
X119295333Y-139203518D01*
X119126000Y-139288185D01*
X119041333Y-139372851D01*
X118956666Y-139542185D01*
X118956666Y-139711518D01*
X119041333Y-139965518D01*
X120057333Y-140981518D01*
X118956666Y-140981518D01*
X131360333Y-143844098D02*
X131360333Y-142066098D01*
X130598333Y-143759431D02*
X130429000Y-143844098D01*
X130090333Y-143844098D01*
X129921000Y-143759431D01*
X129836333Y-143590098D01*
X129836333Y-143505431D01*
X129921000Y-143336098D01*
X130090333Y-143251431D01*
X130344333Y-143251431D01*
X130513666Y-143166765D01*
X130598333Y-142997431D01*
X130598333Y-142912765D01*
X130513666Y-142743431D01*
X130344333Y-142658765D01*
X130090333Y-142658765D01*
X129921000Y-142743431D01*
X128312333Y-143844098D02*
X128312333Y-142912765D01*
X128397000Y-142743431D01*
X128566333Y-142658765D01*
X128905000Y-142658765D01*
X129074333Y-142743431D01*
X128312333Y-143759431D02*
X128481666Y-143844098D01*
X128905000Y-143844098D01*
X129074333Y-143759431D01*
X129159000Y-143590098D01*
X129159000Y-143420765D01*
X129074333Y-143251431D01*
X128905000Y-143166765D01*
X128481666Y-143166765D01*
X128312333Y-143082098D01*
X126703666Y-143844098D02*
X126703666Y-142912765D01*
X126788333Y-142743431D01*
X126957666Y-142658765D01*
X127296333Y-142658765D01*
X127465666Y-142743431D01*
X126703666Y-143759431D02*
X126873000Y-143844098D01*
X127296333Y-143844098D01*
X127465666Y-143759431D01*
X127550333Y-143590098D01*
X127550333Y-143420765D01*
X127465666Y-143251431D01*
X127296333Y-143166765D01*
X126873000Y-143166765D01*
X126703666Y-143082098D01*
X125095000Y-143759431D02*
X125264333Y-143844098D01*
X125603000Y-143844098D01*
X125772333Y-143759431D01*
X125857000Y-143674765D01*
X125941666Y-143505431D01*
X125941666Y-142997431D01*
X125857000Y-142828098D01*
X125772333Y-142743431D01*
X125603000Y-142658765D01*
X125264333Y-142658765D01*
X125095000Y-142743431D01*
X121962333Y-143844098D02*
X122555000Y-142997431D01*
X122978333Y-143844098D02*
X122978333Y-142066098D01*
X122301000Y-142066098D01*
X122131666Y-142150765D01*
X122047000Y-142235431D01*
X121962333Y-142404765D01*
X121962333Y-142658765D01*
X122047000Y-142828098D01*
X122131666Y-142912765D01*
X122301000Y-142997431D01*
X122978333Y-142997431D01*
X120523000Y-143759431D02*
X120692333Y-143844098D01*
X121031000Y-143844098D01*
X121200333Y-143759431D01*
X121285000Y-143590098D01*
X121285000Y-142912765D01*
X121200333Y-142743431D01*
X121031000Y-142658765D01*
X120692333Y-142658765D01*
X120523000Y-142743431D01*
X120438333Y-142912765D01*
X120438333Y-143082098D01*
X121285000Y-143251431D01*
X119845666Y-143844098D02*
X118914333Y-142658765D01*
X119845666Y-142658765D02*
X118914333Y-143844098D01*
D12*
X145935095Y-48556333D02*
X142911285Y-48556333D01*
X146539857Y-50370619D02*
X144423190Y-44020619D01*
X142306523Y-50370619D01*
X140189857Y-50370619D02*
X140189857Y-46137285D01*
X140189857Y-46742047D02*
X139887476Y-46439666D01*
X139282714Y-46137285D01*
X138375571Y-46137285D01*
X137770809Y-46439666D01*
X137468428Y-47044428D01*
X137468428Y-50370619D01*
X137468428Y-47044428D02*
X137166047Y-46439666D01*
X136561285Y-46137285D01*
X135654142Y-46137285D01*
X135049380Y-46439666D01*
X134747000Y-47044428D01*
X134747000Y-50370619D01*
X131723190Y-46137285D02*
X131723190Y-52487285D01*
X131723190Y-46439666D02*
X131118428Y-46137285D01*
X129908904Y-46137285D01*
X129304142Y-46439666D01*
X129001761Y-46742047D01*
X128699380Y-47346809D01*
X128699380Y-49161095D01*
X129001761Y-49765857D01*
X129304142Y-50068238D01*
X129908904Y-50370619D01*
X131118428Y-50370619D01*
X131723190Y-50068238D01*
X123558904Y-50068238D02*
X124163666Y-50370619D01*
X125373190Y-50370619D01*
X125977952Y-50068238D01*
X126280333Y-49463476D01*
X126280333Y-47044428D01*
X125977952Y-46439666D01*
X125373190Y-46137285D01*
X124163666Y-46137285D01*
X123558904Y-46439666D01*
X123256523Y-47044428D01*
X123256523Y-47649190D01*
X126280333Y-48253952D01*
X117813666Y-50370619D02*
X117813666Y-47044428D01*
X118116047Y-46439666D01*
X118720809Y-46137285D01*
X119930333Y-46137285D01*
X120535095Y-46439666D01*
X117813666Y-50068238D02*
X118418428Y-50370619D01*
X119930333Y-50370619D01*
X120535095Y-50068238D01*
X120837476Y-49463476D01*
X120837476Y-48858714D01*
X120535095Y-48253952D01*
X119930333Y-47951571D01*
X118418428Y-47951571D01*
X117813666Y-47649190D01*
X115697000Y-46137285D02*
X113277952Y-46137285D01*
X114789857Y-44020619D02*
X114789857Y-49463476D01*
X114487476Y-50068238D01*
X113882714Y-50370619D01*
X113277952Y-50370619D01*
X108742238Y-50068238D02*
X109347000Y-50370619D01*
X110556523Y-50370619D01*
X111161285Y-50068238D01*
X111463666Y-49463476D01*
X111463666Y-47044428D01*
X111161285Y-46439666D01*
X110556523Y-46137285D01*
X109347000Y-46137285D01*
X108742238Y-46439666D01*
X108439857Y-47044428D01*
X108439857Y-47649190D01*
X111463666Y-48253952D01*
X105718428Y-50370619D02*
X105718428Y-46137285D01*
X105718428Y-47346809D02*
X105416047Y-46742047D01*
X105113666Y-46439666D01*
X104508904Y-46137285D01*
X103904142Y-46137285D01*
D13*
X146134666Y-56176333D02*
X145965333Y-56176333D01*
X145796000Y-56261000D01*
X145711333Y-56345666D01*
X145626666Y-56515000D01*
X145542000Y-56853666D01*
X145542000Y-57277000D01*
X145626666Y-57615666D01*
X145711333Y-57785000D01*
X145796000Y-57869666D01*
X145965333Y-57954333D01*
X146134666Y-57954333D01*
X146304000Y-57869666D01*
X146388666Y-57785000D01*
X146473333Y-57615666D01*
X146558000Y-57277000D01*
X146558000Y-56853666D01*
X146473333Y-56515000D01*
X146388666Y-56345666D01*
X146304000Y-56261000D01*
X146134666Y-56176333D01*
X144780000Y-57277000D02*
X143425333Y-57277000D01*
X141647333Y-57954333D02*
X142663333Y-57954333D01*
X142155333Y-57954333D02*
X142155333Y-56176333D01*
X142324666Y-56430333D01*
X142494000Y-56599666D01*
X142663333Y-56684333D01*
X140546666Y-56176333D02*
X140377333Y-56176333D01*
X140208000Y-56261000D01*
X140123333Y-56345666D01*
X140038666Y-56515000D01*
X139954000Y-56853666D01*
X139954000Y-57277000D01*
X140038666Y-57615666D01*
X140123333Y-57785000D01*
X140208000Y-57869666D01*
X140377333Y-57954333D01*
X140546666Y-57954333D01*
X140716000Y-57869666D01*
X140800666Y-57785000D01*
X140885333Y-57615666D01*
X140970000Y-57277000D01*
X140970000Y-56853666D01*
X140885333Y-56515000D01*
X140800666Y-56345666D01*
X140716000Y-56261000D01*
X140546666Y-56176333D01*
X139276666Y-57446333D02*
X138430000Y-57446333D01*
X139446000Y-57954333D02*
X138853333Y-56176333D01*
X138260666Y-57954333D01*
X137583333Y-57869666D02*
X137583333Y-57954333D01*
X137668000Y-58123666D01*
X137752666Y-58208333D01*
X134535333Y-57954333D02*
X135551333Y-57954333D01*
X135043333Y-57954333D02*
X135043333Y-56176333D01*
X135212666Y-56430333D01*
X135382000Y-56599666D01*
X135551333Y-56684333D01*
X133434666Y-56176333D02*
X133265333Y-56176333D01*
X133095999Y-56261000D01*
X133011333Y-56345666D01*
X132926666Y-56515000D01*
X132841999Y-56853666D01*
X132841999Y-57277000D01*
X132926666Y-57615666D01*
X133011333Y-57785000D01*
X133095999Y-57869666D01*
X133265333Y-57954333D01*
X133434666Y-57954333D01*
X133603999Y-57869666D01*
X133688666Y-57785000D01*
X133773333Y-57615666D01*
X133857999Y-57277000D01*
X133857999Y-56853666D01*
X133773333Y-56515000D01*
X133688666Y-56345666D01*
X133603999Y-56261000D01*
X133434666Y-56176333D01*
X132164666Y-57446333D02*
X131318000Y-57446333D01*
X132334000Y-57954333D02*
X131741333Y-56176333D01*
X131148666Y-57954333D01*
X129286000Y-56091666D02*
X130810000Y-58377666D01*
X128693333Y-56769000D02*
X128693333Y-58547000D01*
X127846666Y-57700333D02*
X127761999Y-57869666D01*
X127592666Y-57954333D01*
X128693333Y-57700333D02*
X128608666Y-57869666D01*
X128439333Y-57954333D01*
X128100666Y-57954333D01*
X127931333Y-57869666D01*
X127846666Y-57700333D01*
X127846666Y-56769000D01*
X126915333Y-57869666D02*
X126745999Y-57954333D01*
X126407333Y-57954333D01*
X126237999Y-57869666D01*
X126153333Y-57700333D01*
X126153333Y-57615666D01*
X126237999Y-57446333D01*
X126407333Y-57361666D01*
X126661333Y-57361666D01*
X126830666Y-57277000D01*
X126915333Y-57107666D01*
X126915333Y-57023000D01*
X126830666Y-56853666D01*
X126661333Y-56769000D01*
X126407333Y-56769000D01*
X126237999Y-56853666D01*
X124121333Y-57869666D02*
X123867333Y-57954333D01*
X123443999Y-57954333D01*
X123274666Y-57869666D01*
X123189999Y-57785000D01*
X123105333Y-57615666D01*
X123105333Y-57446333D01*
X123189999Y-57277000D01*
X123274666Y-57192333D01*
X123443999Y-57107666D01*
X123782666Y-57023000D01*
X123951999Y-56938333D01*
X124036666Y-56853666D01*
X124121333Y-56684333D01*
X124121333Y-56515000D01*
X124036666Y-56345666D01*
X123951999Y-56261000D01*
X123782666Y-56176333D01*
X123359333Y-56176333D01*
X123105333Y-56261000D01*
X122089333Y-57954333D02*
X122258666Y-57869666D01*
X122343333Y-57700333D01*
X122343333Y-56176333D01*
X120734666Y-57869666D02*
X120904000Y-57954333D01*
X121242666Y-57954333D01*
X121412000Y-57869666D01*
X121496666Y-57700333D01*
X121496666Y-57023000D01*
X121412000Y-56853666D01*
X121242666Y-56769000D01*
X120904000Y-56769000D01*
X120734666Y-56853666D01*
X120650000Y-57023000D01*
X120650000Y-57192333D01*
X121496666Y-57361666D01*
X120057333Y-56769000D02*
X119718666Y-57954333D01*
X119379999Y-57107666D01*
X119041333Y-57954333D01*
X118702666Y-56769000D01*
X115654666Y-57954333D02*
X116247333Y-57107666D01*
X116670666Y-57954333D02*
X116670666Y-56176333D01*
X115993333Y-56176333D01*
X115824000Y-56261000D01*
X115739333Y-56345666D01*
X115654666Y-56515000D01*
X115654666Y-56769000D01*
X115739333Y-56938333D01*
X115824000Y-57023000D01*
X115993333Y-57107666D01*
X116670666Y-57107666D01*
X114130666Y-57954333D02*
X114130666Y-57023000D01*
X114215333Y-56853666D01*
X114384666Y-56769000D01*
X114723333Y-56769000D01*
X114892666Y-56853666D01*
X114130666Y-57869666D02*
X114300000Y-57954333D01*
X114723333Y-57954333D01*
X114892666Y-57869666D01*
X114977333Y-57700333D01*
X114977333Y-57531000D01*
X114892666Y-57361666D01*
X114723333Y-57277000D01*
X114300000Y-57277000D01*
X114130666Y-57192333D01*
X113538000Y-56769000D02*
X112860666Y-56769000D01*
X113284000Y-56176333D02*
X113284000Y-57700333D01*
X113199333Y-57869666D01*
X113030000Y-57954333D01*
X112860666Y-57954333D01*
X111590666Y-57869666D02*
X111760000Y-57954333D01*
X112098666Y-57954333D01*
X112268000Y-57869666D01*
X112352666Y-57700333D01*
X112352666Y-57023000D01*
X112268000Y-56853666D01*
X112098666Y-56769000D01*
X111760000Y-56769000D01*
X111590666Y-56853666D01*
X111506000Y-57023000D01*
X111506000Y-57192333D01*
X112352666Y-57361666D01*
X110659333Y-57869666D02*
X110659333Y-57954333D01*
X110744000Y-58123666D01*
X110828666Y-58208333D01*
X107696000Y-56176333D02*
X108542666Y-56176333D01*
X108627333Y-57023000D01*
X108542666Y-56938333D01*
X108373333Y-56853666D01*
X107950000Y-56853666D01*
X107780666Y-56938333D01*
X107696000Y-57023000D01*
X107611333Y-57192333D01*
X107611333Y-57615666D01*
X107696000Y-57785000D01*
X107780666Y-57869666D01*
X107950000Y-57954333D01*
X108373333Y-57954333D01*
X108542666Y-57869666D01*
X108627333Y-57785000D01*
X106510666Y-56176333D02*
X106341333Y-56176333D01*
X106172000Y-56261000D01*
X106087333Y-56345666D01*
X106002666Y-56515000D01*
X105918000Y-56853666D01*
X105918000Y-57277000D01*
X106002666Y-57615666D01*
X106087333Y-57785000D01*
X106172000Y-57869666D01*
X106341333Y-57954333D01*
X106510666Y-57954333D01*
X106680000Y-57869666D01*
X106764666Y-57785000D01*
X106849333Y-57615666D01*
X106934000Y-57277000D01*
X106934000Y-56853666D01*
X106849333Y-56515000D01*
X106764666Y-56345666D01*
X106680000Y-56261000D01*
X106510666Y-56176333D01*
X105325333Y-56176333D02*
X104902000Y-57954333D01*
X104563333Y-56684333D01*
X104224666Y-57954333D01*
X103801333Y-56176333D01*
D14*
%TO.C,SW301*%
X110743714Y-111741861D02*
X110600857Y-111789480D01*
X110362761Y-111789480D01*
X110267523Y-111741861D01*
X110219904Y-111694242D01*
X110172285Y-111599004D01*
X110172285Y-111503766D01*
X110219904Y-111408528D01*
X110267523Y-111360909D01*
X110362761Y-111313290D01*
X110553238Y-111265671D01*
X110648476Y-111218052D01*
X110696095Y-111170433D01*
X110743714Y-111075195D01*
X110743714Y-110979957D01*
X110696095Y-110884719D01*
X110648476Y-110837100D01*
X110553238Y-110789480D01*
X110315142Y-110789480D01*
X110172285Y-110837100D01*
X109838952Y-110789480D02*
X109600857Y-111789480D01*
X109410380Y-111075195D01*
X109219904Y-111789480D01*
X108981809Y-110789480D01*
X108696095Y-110789480D02*
X108077047Y-110789480D01*
X108410380Y-111170433D01*
X108267523Y-111170433D01*
X108172285Y-111218052D01*
X108124666Y-111265671D01*
X108077047Y-111360909D01*
X108077047Y-111599004D01*
X108124666Y-111694242D01*
X108172285Y-111741861D01*
X108267523Y-111789480D01*
X108553238Y-111789480D01*
X108648476Y-111741861D01*
X108696095Y-111694242D01*
X107458000Y-110789480D02*
X107362761Y-110789480D01*
X107267523Y-110837100D01*
X107219904Y-110884719D01*
X107172285Y-110979957D01*
X107124666Y-111170433D01*
X107124666Y-111408528D01*
X107172285Y-111599004D01*
X107219904Y-111694242D01*
X107267523Y-111741861D01*
X107362761Y-111789480D01*
X107458000Y-111789480D01*
X107553238Y-111741861D01*
X107600857Y-111694242D01*
X107648476Y-111599004D01*
X107696095Y-111408528D01*
X107696095Y-111170433D01*
X107648476Y-110979957D01*
X107600857Y-110884719D01*
X107553238Y-110837100D01*
X107458000Y-110789480D01*
X106172285Y-111789480D02*
X106743714Y-111789480D01*
X106458000Y-111789480D02*
X106458000Y-110789480D01*
X106553238Y-110932338D01*
X106648476Y-111027576D01*
X106743714Y-111075195D01*
%TO.C,JP301*%
X121419714Y-98258380D02*
X121419714Y-98972666D01*
X121467333Y-99115523D01*
X121562571Y-99210761D01*
X121705428Y-99258380D01*
X121800666Y-99258380D01*
X120943523Y-99258380D02*
X120943523Y-98258380D01*
X120562571Y-98258380D01*
X120467333Y-98306000D01*
X120419714Y-98353619D01*
X120372095Y-98448857D01*
X120372095Y-98591714D01*
X120419714Y-98686952D01*
X120467333Y-98734571D01*
X120562571Y-98782190D01*
X120943523Y-98782190D01*
X120038761Y-98258380D02*
X119419714Y-98258380D01*
X119753047Y-98639333D01*
X119610190Y-98639333D01*
X119514952Y-98686952D01*
X119467333Y-98734571D01*
X119419714Y-98829809D01*
X119419714Y-99067904D01*
X119467333Y-99163142D01*
X119514952Y-99210761D01*
X119610190Y-99258380D01*
X119895904Y-99258380D01*
X119991142Y-99210761D01*
X120038761Y-99163142D01*
X118800666Y-98258380D02*
X118705428Y-98258380D01*
X118610190Y-98306000D01*
X118562571Y-98353619D01*
X118514952Y-98448857D01*
X118467333Y-98639333D01*
X118467333Y-98877428D01*
X118514952Y-99067904D01*
X118562571Y-99163142D01*
X118610190Y-99210761D01*
X118705428Y-99258380D01*
X118800666Y-99258380D01*
X118895904Y-99210761D01*
X118943523Y-99163142D01*
X118991142Y-99067904D01*
X119038761Y-98877428D01*
X119038761Y-98639333D01*
X118991142Y-98448857D01*
X118943523Y-98353619D01*
X118895904Y-98306000D01*
X118800666Y-98258380D01*
X117514952Y-99258380D02*
X118086380Y-99258380D01*
X117800666Y-99258380D02*
X117800666Y-98258380D01*
X117895904Y-98401238D01*
X117991142Y-98496476D01*
X118086380Y-98544095D01*
D15*
%TO.C,DS301*%
X163141991Y-98265000D02*
G75*
G03*
X163141991Y-98265000I-2950000J0D01*
G01*
X163141991Y-134145000D02*
G75*
G03*
X163141991Y-134145000I-2950000J0D01*
G01*
X95881991Y-98265000D02*
G75*
G03*
X95881991Y-98265000I-2950000J0D01*
G01*
X95881991Y-134145000D02*
G75*
G03*
X95881991Y-134145000I-2950000J0D01*
G01*
%TO.C,HS201*%
X105322000Y-72644000D02*
G75*
G03*
X105322000Y-72644000I-5500000J0D01*
G01*
X156122000Y-72644000D02*
G75*
G03*
X156122000Y-72644000I-5500000J0D01*
G01*
%TO.C,SW301*%
X111333401Y-112483732D02*
X105587727Y-112483732D01*
X105587619Y-116370453D02*
X111333401Y-116370453D01*
X105287007Y-116027099D02*
X105287007Y-115437100D01*
X111676754Y-116027099D02*
X111676754Y-115437100D01*
X111676755Y-113417085D02*
X111676755Y-112827086D01*
X105287008Y-113417099D02*
X105287008Y-112827100D01*
X105287008Y-116027099D02*
G75*
G03*
X105587619Y-116370453I346392J-1D01*
G01*
X111676768Y-112827086D02*
G75*
G03*
X111333401Y-112483732I-343368J-14D01*
G01*
X111333401Y-116370454D02*
G75*
G03*
X111676754Y-116027099I-1J343354D01*
G01*
X105587726Y-112483732D02*
G75*
G03*
X105287008Y-112827100I45674J-343368D01*
G01*
%TO.C,JP301*%
X123540800Y-98320400D02*
X122940800Y-98320400D01*
X122940800Y-101120400D02*
X123540800Y-101120400D01*
X124240800Y-100420400D02*
X124240800Y-99020400D01*
X122240800Y-99020400D02*
X122240800Y-100420400D01*
X122940800Y-98320400D02*
G75*
G03*
X122240800Y-99020400I0J-700000D01*
G01*
X123540800Y-101120400D02*
G75*
G03*
X124240800Y-100420400I1J699999D01*
G01*
X124240800Y-99020400D02*
G75*
G03*
X123540800Y-98320400I-700000J0D01*
G01*
X122240800Y-100420400D02*
G75*
G03*
X122940800Y-101120400I699999J-1D01*
G01*
%TD*%
M02*
