%TF.GenerationSoftware,KiCad,Pcbnew,(6.0.4-0)*%
%TF.CreationDate,2022-04-10T17:45:33-05:00*%
%TF.ProjectId,Ampeater,416d7065-6174-4657-922e-6b696361645f,rev?*%
%TF.SameCoordinates,Original*%
%TF.FileFunction,Paste,Top*%
%TF.FilePolarity,Positive*%
%FSLAX46Y46*%
G04 Gerber Fmt 4.6, Leading zero omitted, Abs format (unit mm)*
G04 Created by KiCad (PCBNEW (6.0.4-0)) date 2022-04-10 17:45:33*
%MOMM*%
%LPD*%
G01*
G04 APERTURE LIST*
G04 Aperture macros list*
%AMRoundRect*
0 Rectangle with rounded corners*
0 $1 Rounding radius*
0 $2 $3 $4 $5 $6 $7 $8 $9 X,Y pos of 4 corners*
0 Add a 4 corners polygon primitive as box body*
4,1,4,$2,$3,$4,$5,$6,$7,$8,$9,$2,$3,0*
0 Add four circle primitives for the rounded corners*
1,1,$1+$1,$2,$3*
1,1,$1+$1,$4,$5*
1,1,$1+$1,$6,$7*
1,1,$1+$1,$8,$9*
0 Add four rect primitives between the rounded corners*
20,1,$1+$1,$2,$3,$4,$5,0*
20,1,$1+$1,$4,$5,$6,$7,0*
20,1,$1+$1,$6,$7,$8,$9,0*
20,1,$1+$1,$8,$9,$2,$3,0*%
G04 Aperture macros list end*
%ADD10R,2.750000X3.050000*%
%ADD11R,1.200000X2.200000*%
%ADD12RoundRect,0.225000X0.225000X0.250000X-0.225000X0.250000X-0.225000X-0.250000X0.225000X-0.250000X0*%
%ADD13R,3.100000X3.600000*%
%ADD14RoundRect,0.200000X0.200000X0.275000X-0.200000X0.275000X-0.200000X-0.275000X0.200000X-0.275000X0*%
%ADD15RoundRect,0.250000X-0.362500X-1.425000X0.362500X-1.425000X0.362500X1.425000X-0.362500X1.425000X0*%
%ADD16RoundRect,0.100000X0.100000X-0.712500X0.100000X0.712500X-0.100000X0.712500X-0.100000X-0.712500X0*%
%ADD17RoundRect,0.225000X-0.225000X-0.250000X0.225000X-0.250000X0.225000X0.250000X-0.225000X0.250000X0*%
%ADD18R,1.100000X1.100000*%
%ADD19RoundRect,0.225000X-0.250000X0.225000X-0.250000X-0.225000X0.250000X-0.225000X0.250000X0.225000X0*%
%ADD20RoundRect,0.200000X-0.200000X-0.275000X0.200000X-0.275000X0.200000X0.275000X-0.200000X0.275000X0*%
%ADD21RoundRect,0.200000X-0.275000X0.200000X-0.275000X-0.200000X0.275000X-0.200000X0.275000X0.200000X0*%
%ADD22RoundRect,0.200000X0.275000X-0.200000X0.275000X0.200000X-0.275000X0.200000X-0.275000X-0.200000X0*%
%ADD23RoundRect,0.450000X-0.800000X-0.450000X0.800000X-0.450000X0.800000X0.450000X-0.800000X0.450000X0*%
%ADD24R,2.000000X2.200000*%
%ADD25RoundRect,0.200000X0.800000X0.900000X-0.800000X0.900000X-0.800000X-0.900000X0.800000X-0.900000X0*%
%ADD26RoundRect,0.225000X0.250000X-0.225000X0.250000X0.225000X-0.250000X0.225000X-0.250000X-0.225000X0*%
%ADD27RoundRect,0.150000X-0.150000X0.512500X-0.150000X-0.512500X0.150000X-0.512500X0.150000X0.512500X0*%
%ADD28RoundRect,0.125000X-0.537500X-0.125000X0.537500X-0.125000X0.537500X0.125000X-0.537500X0.125000X0*%
%ADD29RoundRect,0.100000X0.637500X0.100000X-0.637500X0.100000X-0.637500X-0.100000X0.637500X-0.100000X0*%
G04 APERTURE END LIST*
D10*
%TO.C,U101*%
X138759200Y-120253200D03*
X141809200Y-123603200D03*
X138759200Y-123603200D03*
X141809200Y-120253200D03*
D11*
X138004200Y-128228200D03*
X142564200Y-128228200D03*
%TD*%
D12*
%TO.C,C202*%
X123025200Y-87096600D03*
X121475200Y-87096600D03*
%TD*%
%TO.C,C201*%
X123025200Y-85242400D03*
X121475200Y-85242400D03*
%TD*%
D13*
%TO.C,R219*%
X146100800Y-85979000D03*
X149800800Y-85979000D03*
%TD*%
D14*
%TO.C,R304*%
X109283000Y-105486200D03*
X107633000Y-105486200D03*
%TD*%
%TO.C,R204*%
X118808000Y-95631000D03*
X117158000Y-95631000D03*
%TD*%
D15*
%TO.C,R222*%
X143921500Y-90551000D03*
X149846500Y-90551000D03*
%TD*%
D12*
%TO.C,C309*%
X123025200Y-94589600D03*
X121475200Y-94589600D03*
%TD*%
D16*
%TO.C,U303*%
X121275200Y-101020100D03*
X121925200Y-101020100D03*
X122575200Y-101020100D03*
X123225200Y-101020100D03*
X123225200Y-96795100D03*
X122575200Y-96795100D03*
X121925200Y-96795100D03*
X121275200Y-96795100D03*
%TD*%
D17*
%TO.C,C206*%
X125717000Y-89916000D03*
X127267000Y-89916000D03*
%TD*%
D18*
%TO.C,D302*%
X83642200Y-124564600D03*
X83642200Y-121764600D03*
%TD*%
D12*
%TO.C,C101*%
X141059200Y-130842200D03*
X139509200Y-130842200D03*
%TD*%
D19*
%TO.C,C307*%
X120116600Y-110883400D03*
X120116600Y-112433400D03*
%TD*%
D15*
%TO.C,R214*%
X104479500Y-90551000D03*
X110404500Y-90551000D03*
%TD*%
D12*
%TO.C,C310*%
X118758000Y-103124000D03*
X117208000Y-103124000D03*
%TD*%
D20*
%TO.C,R307*%
X141669000Y-134366000D03*
X143319000Y-134366000D03*
%TD*%
%TO.C,R302*%
X102553000Y-138430000D03*
X104203000Y-138430000D03*
%TD*%
D21*
%TO.C,R208*%
X123918900Y-107353600D03*
X123918900Y-109003600D03*
%TD*%
D20*
%TO.C,R216*%
X125641600Y-84201000D03*
X127291600Y-84201000D03*
%TD*%
D14*
%TO.C,R308*%
X143319000Y-136398000D03*
X141669000Y-136398000D03*
%TD*%
D22*
%TO.C,R306*%
X123926600Y-112483400D03*
X123926600Y-110833400D03*
%TD*%
D12*
%TO.C,C305*%
X139713000Y-134366000D03*
X138163000Y-134366000D03*
%TD*%
%TO.C,C308*%
X139713000Y-136398000D03*
X138163000Y-136398000D03*
%TD*%
D21*
%TO.C,R309*%
X115036600Y-99022400D03*
X115036600Y-100672400D03*
%TD*%
D17*
%TO.C,C208*%
X125717000Y-93726000D03*
X127267000Y-93726000D03*
%TD*%
D23*
%TO.C,SW302*%
X116988000Y-143804000D03*
X102488000Y-143804000D03*
X102488000Y-148804000D03*
X116988000Y-148804000D03*
%TD*%
D13*
%TO.C,R220*%
X138739000Y-85979000D03*
X142439000Y-85979000D03*
%TD*%
D24*
%TO.C,D101*%
X172974000Y-98262600D03*
D25*
X169374000Y-98262600D03*
%TD*%
D21*
%TO.C,R206*%
X120116600Y-107353600D03*
X120116600Y-109003600D03*
%TD*%
D14*
%TO.C,R305*%
X143319000Y-138430000D03*
X141669000Y-138430000D03*
%TD*%
D26*
%TO.C,C301*%
X125831600Y-112433400D03*
X125831600Y-110883400D03*
%TD*%
D23*
%TO.C,SW303*%
X122186000Y-143804000D03*
X136686000Y-143804000D03*
X122186000Y-148804000D03*
X136686000Y-148804000D03*
%TD*%
D20*
%TO.C,R310*%
X91250000Y-117475000D03*
X92900000Y-117475000D03*
%TD*%
%TO.C,R303*%
X123761000Y-138430000D03*
X122111000Y-138430000D03*
%TD*%
D26*
%TO.C,C304*%
X109423200Y-109004400D03*
X109423200Y-107454400D03*
%TD*%
D13*
%TO.C,R211*%
X106684200Y-85979000D03*
X110384200Y-85979000D03*
%TD*%
%TO.C,R212*%
X99318200Y-85979000D03*
X103018200Y-85979000D03*
%TD*%
D20*
%TO.C,R217*%
X125667000Y-91821000D03*
X127317000Y-91821000D03*
%TD*%
D27*
%TO.C,U302*%
X118933000Y-98709900D03*
X117983000Y-98709900D03*
X117033000Y-98709900D03*
X117033000Y-100984900D03*
X117983000Y-100984900D03*
X118933000Y-100984900D03*
%TD*%
D21*
%TO.C,R209*%
X125823900Y-107353600D03*
X125823900Y-109003600D03*
%TD*%
%TO.C,R205*%
X109423200Y-110884200D03*
X109423200Y-112534200D03*
%TD*%
D12*
%TO.C,C311*%
X123025200Y-92735400D03*
X121475200Y-92735400D03*
%TD*%
D17*
%TO.C,C302*%
X107683000Y-103505000D03*
X109233000Y-103505000D03*
%TD*%
D22*
%TO.C,R221*%
X129108200Y-85788000D03*
X129108200Y-84138000D03*
%TD*%
D14*
%TO.C,R203*%
X118808000Y-91821000D03*
X117158000Y-91821000D03*
%TD*%
D19*
%TO.C,C306*%
X122021600Y-110883400D03*
X122021600Y-112433400D03*
%TD*%
D17*
%TO.C,C204*%
X117208000Y-86106000D03*
X118758000Y-86106000D03*
%TD*%
D21*
%TO.C,JP201*%
X91719400Y-90970600D03*
X91719400Y-92620600D03*
%TD*%
D14*
%TO.C,R101*%
X171999000Y-95377000D03*
X170349000Y-95377000D03*
%TD*%
D20*
%TO.C,R201*%
X117158000Y-88011000D03*
X118808000Y-88011000D03*
%TD*%
D19*
%TO.C,C103*%
X135535400Y-124682400D03*
X135535400Y-126232400D03*
%TD*%
D14*
%TO.C,R215*%
X127317000Y-88011000D03*
X125667000Y-88011000D03*
%TD*%
D17*
%TO.C,C205*%
X117208000Y-93726000D03*
X118758000Y-93726000D03*
%TD*%
D26*
%TO.C,C303*%
X107518200Y-109004400D03*
X107518200Y-107454400D03*
%TD*%
D21*
%TO.C,R207*%
X122021600Y-107353600D03*
X122021600Y-109003600D03*
%TD*%
D22*
%TO.C,R213*%
X115316000Y-85788000D03*
X115316000Y-84138000D03*
%TD*%
D14*
%TO.C,R301*%
X109283000Y-114427000D03*
X107633000Y-114427000D03*
%TD*%
D17*
%TO.C,C207*%
X125691600Y-86106000D03*
X127241600Y-86106000D03*
%TD*%
D28*
%TO.C,U201*%
X121112700Y-88941000D03*
X121112700Y-89591000D03*
X121112700Y-90241000D03*
X121112700Y-90891000D03*
X123387700Y-90891000D03*
X123387700Y-90241000D03*
X123387700Y-89591000D03*
X123387700Y-88941000D03*
%TD*%
D18*
%TO.C,D301*%
X83436000Y-89662000D03*
X86236000Y-89662000D03*
%TD*%
D21*
%TO.C,R210*%
X107518200Y-110884200D03*
X107518200Y-112534200D03*
%TD*%
D12*
%TO.C,C203*%
X118758000Y-89916000D03*
X117208000Y-89916000D03*
%TD*%
D20*
%TO.C,R218*%
X125667000Y-95631000D03*
X127317000Y-95631000D03*
%TD*%
D29*
%TO.C,U301*%
X117619700Y-112907000D03*
X117619700Y-112257000D03*
X117619700Y-111607000D03*
X117619700Y-110957000D03*
X117619700Y-110307000D03*
X117619700Y-109657000D03*
X117619700Y-109007000D03*
X117619700Y-108357000D03*
X117619700Y-107707000D03*
X117619700Y-107057000D03*
X111894700Y-107057000D03*
X111894700Y-107707000D03*
X111894700Y-108357000D03*
X111894700Y-109007000D03*
X111894700Y-109657000D03*
X111894700Y-110307000D03*
X111894700Y-110957000D03*
X111894700Y-111607000D03*
X111894700Y-112257000D03*
X111894700Y-112907000D03*
%TD*%
D19*
%TO.C,C102*%
X133554200Y-124682400D03*
X133554200Y-126232400D03*
%TD*%
D14*
%TO.C,R202*%
X118808000Y-84201000D03*
X117158000Y-84201000D03*
%TD*%
M02*
