M48
; DRILL file {KiCad (6.0.4-0)} date Sunday, April 10, 2022 at 05:45:36 PM
; FORMAT={-:-/ absolute / inch / decimal}
; #@! TF.CreationDate,2022-04-10T17:45:36-05:00
; #@! TF.GenerationSoftware,Kicad,Pcbnew,(6.0.4-0)
; #@! TF.FileFunction,Plated,1,4,PTH
FMAT,2
INCH
; #@! TA.AperFunction,Plated,PTH,ViaDrill
T1C0.0157
; #@! TA.AperFunction,Plated,PTH,ViaDrill
T2C0.0236
; #@! TA.AperFunction,Plated,PTH,ComponentDrill
T3C0.0315
; #@! TA.AperFunction,Plated,PTH,ViaDrill
T4C0.0320
; #@! TA.AperFunction,Plated,PTH,ComponentDrill
T5C0.0394
; #@! TA.AperFunction,Plated,PTH,ComponentDrill
T6C0.0433
; #@! TA.AperFunction,Plated,PTH,ComponentDrill
T7C0.0472
; #@! TA.AperFunction,Plated,PTH,ComponentDrill
T8C0.0630
; #@! TA.AperFunction,Plated,PTH,ComponentDrill
T9C0.0787
; #@! TA.AperFunction,Plated,PTH,ComponentDrill
T10C0.1260
; #@! TA.AperFunction,Plated,PTH,ComponentDrill
T11C0.1260
; #@! TA.AperFunction,Plated,PTH,ComponentDrill
T12C0.1339
; #@! TA.AperFunction,Plated,PTH,ComponentDrill
T13C0.2087
%
G90
G05
T1
X3.239Y-3.531
X3.293Y-4.95
X3.689Y-3.696
X3.697Y-4.625
X3.944Y-3.71
X3.954Y-3.561
X4.057Y-4.11
X4.119Y-5.859
X4.1346Y-4.1246
X4.146Y-5.358
X4.186Y-4.505
X4.188Y-4.27
X4.188Y-4.3123
X4.19Y-4.23
X4.192Y-4.152
X4.236Y-4.19
X4.27Y-4.23
X4.27Y-4.466
X4.271Y-4.285
X4.308Y-3.694
X4.33Y-4.106
X4.352Y-4.4437
X4.4053Y-4.1617
X4.4548Y-4.4443
X4.46Y-3.275
X4.46Y-4.3
X4.464Y-5.074
X4.485Y-4.544
X4.4887Y-4.1987
X4.4899Y-4.3539
X4.516Y-4.134
X4.544Y-3.698
X4.564Y-3.992
X4.564Y-4.018
X4.575Y-4.1424
X4.579Y-4.266
X4.5813Y-4.3684
X4.608Y-3.822
X4.631Y-4.1424
X4.644Y-3.822
X4.6897Y-4.2639
X4.714Y-4.06
X4.716Y-3.578
X4.726Y-3.65
X4.726Y-3.724
X4.728Y-3.354
X4.728Y-3.428
X4.732Y-3.976
X4.7655Y-4.3655
X4.766Y-4.426
X4.8175Y-4.031
X4.834Y-4.426
X4.8378Y-4.3469
X4.8524Y-3.8666
X4.857Y-4.031
X4.872Y-4.607
X4.872Y-4.707
X4.872Y-4.807
X4.872Y-4.907
X4.883Y-3.811
X4.8911Y-3.429
X4.893Y-5.858
X4.896Y-3.62
X4.9Y-4.13
X4.914Y-3.972
X4.916Y-4.364
X4.972Y-4.607
X4.972Y-4.707
X4.972Y-4.807
X4.972Y-4.907
X5.0Y-4.322
X5.0Y-4.366
X5.018Y-4.166
X5.072Y-4.507
X5.072Y-4.607
X5.072Y-4.707
X5.072Y-4.807
X5.072Y-4.907
X5.172Y-4.507
X5.172Y-4.607
X5.172Y-4.707
X5.172Y-4.807
X5.172Y-4.907
X5.258Y-5.016
X5.272Y-4.507
X5.272Y-4.607
X5.272Y-4.707
X5.272Y-4.807
X5.336Y-5.016
X5.372Y-4.507
X5.372Y-4.607
X5.372Y-4.707
X5.372Y-4.807
X5.382Y-5.048
X5.4332Y-5.1198
X5.434Y-4.976
X5.438Y-5.151
X5.439Y-5.247
X5.44Y-5.413
X5.472Y-4.507
X5.472Y-4.607
X5.484Y-5.048
X5.498Y-3.71
X5.507Y-3.561
X5.54Y-5.41
X5.572Y-4.507
X5.572Y-4.607
X5.672Y-4.507
X5.672Y-4.607
X5.672Y-4.707
X5.672Y-4.807
X5.672Y-4.907
X5.689Y-5.37
X5.772Y-4.507
X5.772Y-4.607
X5.772Y-4.707
X5.772Y-4.807
X5.772Y-4.907
X5.872Y-4.507
X5.872Y-4.607
X5.872Y-4.707
X5.872Y-4.807
X5.872Y-4.907
X5.972Y-4.507
X5.972Y-4.607
X5.972Y-4.707
X5.972Y-4.807
X5.972Y-4.907
X6.072Y-4.507
X6.072Y-4.607
X6.072Y-4.707
X6.072Y-4.807
X6.072Y-4.907
X6.172Y-4.507
X6.172Y-4.607
X6.172Y-4.707
X6.172Y-4.807
X6.172Y-4.907
X6.596Y-3.755
T2
X3.954Y-3.501
X4.014Y-3.501
X4.014Y-3.561
X4.014Y-3.621
X4.074Y-3.501
X4.074Y-3.561
X4.074Y-3.621
X5.507Y-3.501
X5.567Y-3.501
X5.567Y-3.561
X5.567Y-3.621
X5.627Y-3.501
X5.627Y-3.561
X5.627Y-3.621
T3
X6.677Y-4.4719
X6.677Y-4.5704
X6.677Y-4.6688
X6.803Y-4.4719
X6.803Y-4.5704
X6.803Y-4.6688
T4
X5.709Y-5.045
X5.709Y-5.119
T5
X3.2922Y-4.13
X3.2922Y-4.23
X3.2922Y-4.33
X3.2922Y-4.43
X3.2922Y-4.53
X3.2922Y-4.63
X3.2924Y-3.6802
X3.2924Y-3.7802
X3.3924Y-3.6802
X3.3924Y-3.7802
X3.465Y-3.925
X3.465Y-4.025
X3.465Y-4.125
X3.465Y-4.225
X3.465Y-4.325
X3.465Y-4.425
X3.465Y-4.525
X3.465Y-4.625
X3.465Y-4.725
X3.465Y-4.825
X3.465Y-4.925
X3.465Y-5.025
X3.465Y-5.125
X3.465Y-5.225
X3.5707Y-3.2508
X3.5707Y-3.3492
X5.5746Y-5.6616
X5.5746Y-5.76
X5.5746Y-5.8584
X6.1454Y-5.6616
X6.1454Y-5.8584
X6.3461Y-4.425
X6.3461Y-4.525
X6.3461Y-4.625
X6.3461Y-4.725
T6
X3.767Y-3.6032
X3.867Y-3.6032
X3.967Y-3.6032
X4.08Y-3.197
X4.18Y-3.197
X4.28Y-3.197
X5.32Y-3.6032
X5.42Y-3.6032
X5.52Y-3.6032
X5.58Y-3.197
X5.68Y-3.197
X5.78Y-3.197
T7
X4.631Y-4.572
X4.98Y-3.894
X5.1281Y-1.11
X5.325Y-1.11
T8
X3.885Y-1.01
X3.885Y-1.21
X4.085Y-1.01
X4.085Y-1.21
X4.485Y-1.01
X4.485Y-1.21
X4.685Y-1.01
X4.685Y-1.21
X6.43Y-3.4575
X6.5481Y-3.2725
X6.6662Y-3.4575
T9
X5.765Y-1.11
X6.065Y-1.11
T10
X3.18Y-1.18
X3.18Y-5.8
X6.68Y-5.8
T11
X6.68Y-1.18
T12
X3.6587Y-3.8687
X3.6587Y-5.2813
X6.3068Y-3.8687
X6.3068Y-5.2813
T13
X3.93Y-2.86
X5.93Y-2.86
T9
G00X5.86Y-5.5395
M15
G01X5.8797Y-5.5395
M16
G05
G00X5.86Y-5.9805
M15
G01X5.8797Y-5.9805
M16
G05
T0
M30
